<svg width="426" height="58" viewBox="0 0 426 58" fill="none" xmlns="http://www.w3.org/2000/svg">
<path d="M14.49 0.839844L21.63 33.1098L28.35 0.839844H42.56L48.93 33.6698L56.42 0.839844H70.91L56.77 56.6298H42.28L35.35 21.4198L28.56 56.6298H14.14L0 0.839844H14.49Z" fill="#86CEE0"/>
<path d="M64.26 56.6298L83.16 0.839844H101.5L120.4 56.6298H105.84L100.52 41.0198L82.46 45.9898L78.82 56.6298H64.26ZM86.94 32.7598L96.74 30.0298L92.33 16.9398L86.94 32.7598Z" fill="#86CEE0"/>
<path d="M121.8 0.839844H136.36V44.5898H163.03V56.6298H121.8V0.839844Z" fill="#86CEE0"/>
<path d="M195.93 56.6298L178.99 32.9698V56.6298H164.43V0.839844H178.99V21.8398L195.93 0.839844H211.96L190.4 27.5798L211.96 56.6298H195.93Z" fill="#86CEE0"/>
<path d="M255.51 56.35V26.32L224.22 34.86V56.35H217.22V1.95996H224.22V29.33L255.51 20.79V1.95996H262.51V56.35H255.51Z" fill="#0A122D"/>
<path d="M266.71 29.05C266.71 24.66 267.44 20.7 268.92 17.15C270.39 13.6 272.38 10.61 274.9 8.14998C277.42 5.69998 280.34 3.80998 283.65 2.47998C286.96 1.14998 290.49 0.47998 294.22 0.47998C298 0.47998 301.56 1.14998 304.89 2.47998C308.23 3.80998 311.14 5.69998 313.64 8.14998C316.14 10.6 318.12 13.6 319.59 17.15C321.06 20.7 321.8 24.66 321.8 29.05C321.8 33.48 321.06 37.47 319.59 41.02C318.12 44.57 316.14 47.58 313.64 50.05C311.14 52.52 308.23 54.43 304.89 55.76C301.55 57.09 298 57.76 294.22 57.76C290.49 57.76 286.96 57.09 283.65 55.76C280.34 54.43 277.42 52.53 274.9 50.05C272.38 47.58 270.39 44.57 268.92 41.02C267.44 37.48 266.71 33.49 266.71 29.05ZM273.71 29.05C273.71 32.78 274.28 36.07 275.42 38.92C276.56 41.77 278.09 44.17 280 46.13C281.91 48.09 284.09 49.57 286.54 50.58C288.99 51.58 291.54 52.08 294.21 52.08C296.88 52.08 299.44 51.58 301.91 50.58C304.38 49.58 306.59 48.09 308.53 46.13C310.47 44.17 312.01 41.77 313.15 38.92C314.29 36.07 314.87 32.78 314.87 29.05C314.87 25.41 314.26 22.17 313.05 19.32C311.84 16.47 310.25 14.08 308.29 12.14C306.33 10.2 304.11 8.72998 301.64 7.72998C299.17 6.72998 296.69 6.22998 294.22 6.22998C291.75 6.22998 289.29 6.72998 286.84 7.72998C284.39 8.72998 282.2 10.2 280.26 12.14C278.32 14.08 276.75 16.47 275.53 19.32C274.31 22.17 273.71 25.41 273.71 29.05Z" fill="#0A122D"/>
<path d="M323.89 1.95996H330.89V50.61H361.76V56.35H323.89V1.95996Z" fill="#0A122D"/>
<path d="M370.23 0V7.84H363.23V0H370.23ZM370.23 14.84V56.35H363.23V14.84H370.23Z" fill="#0A122D"/>
<path d="M374.43 29.12C374.43 24.97 375.14 21.14 376.56 17.64C377.98 14.14 379.93 11.12 382.4 8.58C384.87 6.04 387.81 4.04999 391.22 2.62999C394.63 1.20999 398.29 0.5 402.21 0.5C407.02 0.5 411.46 1.63 415.54 3.89C419.62 6.15 423.02 9.30999 425.72 13.38L420.68 17.02C418.72 13.85 416.14 11.25 412.95 9.22C409.75 7.19 406.1 6.17999 401.99 6.17999C399.05 6.17999 396.32 6.79 393.8 8C391.28 9.21 389.11 10.86 387.29 12.93C385.47 15.01 384.04 17.43 382.99 20.21C381.94 22.99 381.41 25.96 381.41 29.13C381.41 32.35 381.96 35.36 383.05 38.16C384.15 40.96 385.68 43.39 387.63 45.44C389.59 47.49 391.94 49.1 394.67 50.27C397.4 51.44 400.4 52.02 403.67 52.02C407.45 52.02 410.8 51.02 413.71 49.01C416.63 47 419.09 44.34 421.09 41.03L425.99 44.88C423.38 48.85 420.04 51.98 415.98 54.3C411.92 56.61 407.32 57.76 402.19 57.76C398.5 57.76 394.98 57.09 391.62 55.76C388.26 54.43 385.31 52.52 382.77 50.02C380.23 47.52 378.2 44.51 376.68 40.99C375.16 37.47 374.43 33.51 374.43 29.12Z" fill="#0A122D"/>
</svg>
